<?xml version="1.0" encoding="UTF-8" standalone="no"?>
<!-- Created with Inkscape (http://www.inkscape.org/) -->

<svg
   version="1.1"
   id="svg18"
   width="453.33334"
   height="302.66666"
   viewBox="0 0 453.33334 302.66666"
   sodipodi:docname="LogoVec.pdf"
   inkscape:version="0.0"
   xmlns:inkscape="http://www.inkscape.org/namespaces/inkscape"
   xmlns:sodipodi="http://sodipodi.sourceforge.net/DTD/sodipodi-0.dtd"
   xmlns="http://www.w3.org/2000/svg"
   xmlns:svg="http://www.w3.org/2000/svg">
  <defs
     id="defs22">
    <clipPath
       clipPathUnits="userSpaceOnUse"
       id="clipPath46">
      <path
         d="M 0,0 H 340 V 227 H 0 Z"
         id="path44" />
    </clipPath>
  </defs>
  <sodipodi:namedview
     id="namedview20"
     pagecolor="#ffffff"
     bordercolor="#000000"
     borderopacity="0.25"
     inkscape:showpageshadow="2"
     inkscape:pageopacity="0.56470588"
     inkscape:pagecheckerboard="true"
     inkscape:deskcolor="#d1d1d1"
     showgrid="false"
     inkscape:zoom="2.5936125"
     inkscape:cx="209.3605"
     inkscape:cy="151.71889"
     inkscape:window-width="1854"
     inkscape:window-height="1011"
     inkscape:window-x="0"
     inkscape:window-y="0"
     inkscape:window-maximized="1"
     inkscape:current-layer="g26"
     showborder="true" />
  <g
     id="g26"
     inkscape:groupmode="layer"
     inkscape:label="Page 1"
     transform="matrix(1.3333333,0,0,-1.3333333,0,302.66667)">
    <g
       id="g40">
      <g
         id="g42"
         clip-path="url(#clipPath46)"
         style="display:inline">
        <path
           d="m 109.4551,125.1299 c 0,30.2376 24.9601,54.75 55.75,54.75 30.7899,0 55.75,-24.5124 55.75,-54.75 0,-30.23757 -24.9601,-54.74998 -55.75,-54.74998 -30.7899,0 -55.75,24.51241 -55.75,54.74998 z"
           style="fill:#ffffff;fill-opacity:1;fill-rule:nonzero;stroke:none"
           id="path114" />
        <g
           id="g116"
           transform="matrix(7.874016e-5,0,0,-7.874016e-5,109.4551,179.8799)">
          <path
             d="M 0,695325 C 0,311307.6 316993.6,0 708025,0 c 391031,0 708025,311307.6 708025,695325 0,384017 -316994,695325 -708025,695325 C 316993.6,1390650 0,1079342 0,695325 Z"
             style="fill:none;stroke:#ffffff;stroke-width:12700;stroke-linecap:butt;stroke-linejoin:miter;stroke-miterlimit:8;stroke-dasharray:none;stroke-opacity:1"
             id="path118" />
        </g>
        <path
           d="m 108.7051,189.8799 h 100.5 v -32.25 h -100.5 z"
           style="fill:#123847;fill-opacity:1;fill-rule:nonzero;stroke:none"
           id="path120" />
        <g
           id="g122"
           transform="matrix(7.874016e-5,0,0,-7.874016e-5,108.7051,189.8799)">
          <path
             d="M 0,0 H 1276350 V 409575 H 0 Z"
             style="fill:none;stroke:#123847;stroke-width:12700;stroke-linecap:butt;stroke-linejoin:miter;stroke-miterlimit:8;stroke-dasharray:none;stroke-opacity:1"
             id="path124" />
        </g>
        <path
           d="m 146.4551,118.9164 c 0,11.0255 8.712,19.9635 19.4588,19.9635 10.7468,0 19.4588,-8.938 19.4588,-19.9635 0,-11.0256 -8.712,-19.96356 -19.4588,-19.96356 -10.7468,0 -19.4588,8.93796 -19.4588,19.96356 z"
           style="fill:#123847;fill-opacity:1;fill-rule:nonzero;stroke:none"
           id="path126" />
        <g
           id="g128"
           transform="matrix(7.874016e-5,0,0,-7.874016e-5,146.4551,138.8799)">
          <path
             d="M 0,253537 C 0,113512.4 110642.3,0 247126.5,0 383610.7,0 494253,113512.4 494253,253537 494253,393561.6 383610.7,507074 247126.5,507074 110642.3,507074 0,393561.6 0,253537 Z"
             style="fill:none;stroke:#123847;stroke-width:12700;stroke-linecap:butt;stroke-linejoin:miter;stroke-miterlimit:8;stroke-dasharray:none;stroke-opacity:1"
             id="path130" />
        </g>
        <path
           d="m 26.45512,122.63 c 1.12504,1 21.79165,14 34.5,20 12.70834,6 28.5,12.1667 41.74998,16 13.25,3.8333 25.3333,5.9167 37.75,7 12.4167,1.0833 26.0833,0.4583 36.75,-0.5 10.6667,-0.9583 17.5417,-2.5 27.25,-5.25 9.7084,-2.75 19.7084,-6.25 31,-11.25 11.2917,-5 26.7917,-12.9167 36.75,-18.75 9.9584,-5.8333 23,-16.25 23,-16.25 v 0 c -3.5,-2.5416 -14.7083,-11.0833 -21,-15.25 -6.2916,-4.16669 -11,-6.8333 -16.75,-9.75 -11.5,-5.5 -17.8333,-8.12503 -28,-11 -10.1667,-2.87496 -21.7083,-5.37503 -25.5,-6.24999 -3.7916,-0.87504 2.75,0.99999 2.75,0.99999 5.5833,2.29166 21.1251,8 30.75,12.75 9.625,4.75 20.9584,11.9167 27,15.75 6.0417,3.8333 7.6251,6 9.25,7.25 1.625,1.25 2.5,-1.25 0.5,0.25 -2,1.5 -5.2916,4.375 -12.5,8.75 -7.2083,4.375 -18.7083,12.125 -30.75,17.5 -12.0416,5.375 -27.75,11.0417 -41.5,14.75 -13.75,3.7083 -28.9583,6.5417 -41,7.5 -12.0416,0.9583 -21.0416,-0.2917 -31.25,-1.75 -10.2083,-1.4583 -19.49998,-3.9167 -29.99998,-7 -10.5,-3.0833 -23.04166,-7.375 -33,-11.5 -9.95835,-4.125 -28.87504,-15 -27.75,-14 z"
           style="fill:#ffffff;fill-opacity:1;fill-rule:evenodd;stroke:none"
           id="path132" />
        <g
           id="g134"
           transform="matrix(7.874016e-5,0,0,-7.874016e-5,26.40716,166.2006)">
          <path
             d="M 609,553347 C 14897,540647 277363,375547 438759,299347 600155,223147 800709,144830 968984,96147 1137259,47464 1290717,21005 1448409,7247 c 157692,-13758 331258,-5821 466725,6350 135467,12171 222779,31750 346075,66675 123296,34925 250296,79375 393700,142875 143404,63500 340254,164042 466725,238125 126471,74083 292100,206375 292100,206375 v 0 c -44450,32279 -186796,140758 -266700,193675 -79904,52917 -139700,86783 -212725,123825 -146050,69850 -226483,103188 -355600,139700 -129117,36512 -275696,68263 -323850,79375 -48154,11113 34925,-12700 34925,-12700 70908,-29104 268288,-101600 390525,-161925 122237,-60325 266171,-151342 342900,-200025 76729,-48683 96838,-76200 117475,-92075 20638,-15875 31750,15875 6350,-3175 -25400,-19050 -67204,-55563 -158750,-111125 -91546,-55562 -237596,-153988 -390525,-222250 -152929,-68262 -352425,-140229 -527050,-187325 -174625,-47096 -367771,-83079 -520700,-95250 -152929,-12171 -267229,3704 -396875,22225 -129646,18521 -247650,49742 -381000,88900 C 638784,268655 479505,323160 353034,375547 226563,427934 -13679,566047 609,553347 Z"
             style="fill:none;stroke:#ffffff;stroke-width:12700;stroke-linecap:butt;stroke-linejoin:miter;stroke-miterlimit:8;stroke-dasharray:none;stroke-opacity:1"
             id="path136" />
        </g>
        <path
           d="m 172.7943,167.643 h 12.5784 v -48.6487 h -12.5784 z"
           style="fill:#123847;fill-opacity:1;fill-rule:nonzero;stroke:none"
           id="path138" />
        <g
           id="g140"
           transform="matrix(7.874016e-5,0,0,-7.874016e-5,172.7943,167.643)">
          <path
             d="M 0,0 H 159746 V 617838 H 0 Z"
             style="fill:none;stroke:#123847;stroke-width:12700;stroke-linecap:butt;stroke-linejoin:miter;stroke-miterlimit:8;stroke-dasharray:none;stroke-opacity:1"
             id="path142" />
        </g>
        <path
           d="m 28.39465,130.6709 c 1.3333,1.6667 27.37503,19.5833 41.99999,27.25 14.62504,7.6667 30.37506,14.2916 45.74996,18.75 15.375,4.4583 32.1251,7.0416 46.5,8 14.3751,0.9583 24.5833,0.5833 39.75,-2.25 15.1667,-2.8333 36.6251,-9 51.25,-14.75 14.625,-5.75 27.25,-14.1251 36.5,-19.75 9.25,-5.625 15.1251,-11.0417 19,-14 3.875,-2.9584 3.3333,-2.6251 4.25,-3.75 0.9167,-1.125 1.7917,-1.9167 1.25,-3 -0.5416,-1.0833 -1.9167,-2.2084 -4.5,-3.5 -2.5833,-1.2917 -8.1667,-4.1667 -11,-4.25 -2.8333,-0.0833 -1.7083,0.75 -6,3.75 -4.2916,3 -12.2083,9.5 -19.75,14.25 -7.5416,4.75 -16.125,9.9167 -25.5,14.25 -9.3749,4.3333 -20.5833,8.8333 -30.75,11.75 -10.1667,2.9167 -20.5,4.6249 -30.25,5.75 -9.75,1.1249 -18.3333,1.25 -28.25,1 -9.9167,-0.25 -20.2083,-0.75 -31.25,-2.5 -11.0416,-1.75 -24.2083,-4.7917 -34.99996,-8 -10.79165,-3.2084 -19.3333,-6.9167 -30,-11.75 -10.66669,-4.8333 -35.3333,-18.9167 -33.99999,-17.25 z"
           style="fill:#ffffff;fill-opacity:1;fill-rule:evenodd;stroke:none"
           id="path144" />
        <g
           id="g146"
           transform="matrix(7.874016e-5,0,0,-7.874016e-5,28.34268,185.1444)">
          <path
             d="M 660,691814 C 17593,670647 348323,443106 534060,345739 719798,248372 919823,164235 1115085,107614 1310347,50993 1523073,18185 1705635,6014 c 182563,-12171 312208,-7408 504825,28575 192617,35983 465138,114300 650875,187325 185737,73025 346075,179388 463550,250825 117475,71437 192088,140229 241300,177800 49212,37571 42333,33338 53975,47625 11642,14287 22754,24342 15875,38100 -6879,13758 -24342,28046 -57150,44450 -32808,16404 -103717,52917 -139700,53975 -35983,1058 -21696,-9525 -76200,-47625 -54504,-38100 -155046,-120650 -250825,-180975 -95779,-60325 -204788,-125942 -323850,-180975 -119062,-55033 -261408,-112183 -390525,-149225 -129117,-37042 -260350,-58737 -384175,-73025 -123825,-14287 -232833,-15875 -358775,-12700 -125942,3175 -256646,9525 -396875,31750 C 1117731,244139 950514,282768 813460,323514 676406,364260 567927,411356 432460,472739 296993,534122 -16273,712981 660,691814 Z"
             style="fill:none;stroke:#ffffff;stroke-width:12700;stroke-linecap:butt;stroke-linejoin:miter;stroke-miterlimit:8;stroke-dasharray:none;stroke-opacity:1"
             id="path148" />
        </g>
      </g>
    </g>
  </g>
</svg>
